HIERARCHY
ROOT Hips
{
  OFFSET -187.679 86.5976 -156.378
  CHANNELS 6 Xposition Yposition Zposition Zrotation Xrotation Yrotation
  JOINT LeftUpLeg
  {
    OFFSET 8.64259 1.95398 -2.38835
    CHANNELS 3 Zrotation Xrotation Yrotation
    JOINT LeftLeg
    {
      OFFSET 43.7702 0 0
      CHANNELS 3 Zrotation Xrotation Yrotation
      JOINT LeftFoot
      {
        OFFSET 40.6238 0 0
        CHANNELS 3 Zrotation Xrotation Yrotation
        JOINT LeftToeBase
        {
          OFFSET 12.7242 0 0
          CHANNELS 3 Zrotation Xrotation Yrotation
          End Site
          {
            OFFSET 0 0 0
          }
        }
      }
    }
  }
  JOINT RightUpLeg
  {
    OFFSET -8.2249 1.95398 -2.59336
    CHANNELS 3 Zrotation Xrotation Yrotation
    JOINT RightLeg
    {
      OFFSET 43.5653 0 0
      CHANNELS 3 Zrotation Xrotation Yrotation
      JOINT RightFoot
      {
        OFFSET 40.6238 0 0
        CHANNELS 3 Zrotation Xrotation Yrotation
        JOINT RightToeBase
        {
          OFFSET 12.7242 0 0
          CHANNELS 3 Zrotation Xrotation Yrotation
          End Site
          {
            OFFSET 0 0 0
          }
        }
      }
    }
  }
  JOINT Spine
  {
    OFFSET 0.165834 0.87714 6.61349
    CHANNELS 3 Zrotation Xrotation Yrotation
    JOINT Spine1
    {
      OFFSET 7.38963 1.71661e-005 0
      CHANNELS 3 Zrotation Xrotation Yrotation
      JOINT Spine2
      {
        OFFSET 11.9445 1.14441e-005 0
        CHANNELS 3 Zrotation Xrotation Yrotation
        JOINT Spine3
        {
          OFFSET 14.7254 4.19617e-005 0
          CHANNELS 3 Zrotation Xrotation Yrotation
          JOINT Spine4
          {
            OFFSET 10.9679 0 0
            CHANNELS 3 Zrotation Xrotation Yrotation
            JOINT RightShoulder
            {
              OFFSET 2.46616 -1.6653 3.69651
              CHANNELS 3 Zrotation Xrotation Yrotation
              JOINT RightArm
              {
                OFFSET 13.0012 0 0
                CHANNELS 3 Zrotation Xrotation Yrotation
                JOINT RightForeArm
                {
                  OFFSET 28.7848 1.52588e-005 0
                  CHANNELS 3 Zrotation Xrotation Yrotation
                  JOINT RightHand
                  {
                    OFFSET 26.5688 1.52588e-005 0
                    CHANNELS 3 Zrotation Xrotation Yrotation
                    End Site
                    {
                      OFFSET 0 0 0
                    }
                  }
                }
              }
            }
            JOINT LeftShoulder
            {
              OFFSET 2.38034 -1.29275 -3.7523
              CHANNELS 3 Zrotation Xrotation Yrotation
              JOINT LeftArm
              {
                OFFSET 16.3182 6.10352e-005 0
                CHANNELS 3 Zrotation Xrotation Yrotation
                JOINT LeftForeArm
                {
                  OFFSET 27.0901 0 0
                  CHANNELS 3 Zrotation Xrotation Yrotation
                  JOINT LeftHand
                  {
                    OFFSET 24.5451 1.52588e-005 0
                    CHANNELS 3 Zrotation Xrotation Yrotation
                    End Site
                    {
                      OFFSET 0 0 0
                    }
                  }
                }
              }
            }
            JOINT Neck
            {
              OFFSET 5.0226 -0.0266342 0
              CHANNELS 3 Zrotation Xrotation Yrotation
              JOINT Head
              {
                OFFSET 6.69363 2.86102e-005 0
                CHANNELS 3 Zrotation Xrotation Yrotation
                End Site
                {
                  OFFSET 0 0 0
                }
              }
            }
          }
        }
      }
    }
  }
}
MOTION
Frames:	7
Frame Time:	0.0416667
27.8295 99.2845 -100.447 -173.741 -80.5497 -177.055 -173.234 -2.48887 85.7004 -34.5032 23.4123 3.3702 81.8385 9.70968 -2.58827 13.0286 -6.39439 0.165697 174.308 21.5852 87.0052 -35.4997 6.88198 1.17264 66.0076 -2.56706 -1.02643 18.9559 -3.31611 4.60411 -0.540119 8.28122 -89.7663 10.3178 -0.968987 0.551803 -1.35289 -0.943755 0.593913 -23.8908 -1.09004 0.235047 -3.87817 -1.09004 0.23504 84.5232 -52.8069 -108.024 19.0872 -20.8137 -11.4366 -16.3807 -14.5089 -16.6956 -8.8537 -0.0689698 -4.33582 -89.0019 -40.0347 78.2356 -24.6034 2.61886 -18.1865 11.4726 -6.20278 -18.8538 0.0680024 -0.115723 -5.54023 -12.1747 2.69137 -8.48107 10.0274 3.27979 2.71402 
28.9111 99.9216 -104.237 -155.379 -78.9353 -159.858 -175.313 -2.69893 81.5757 -31.5247 17.9507 4.15589 79.5696 8.36003 -1.73665 11.7819 -6.84976 -0.073879 174.518 19.8414 85.2958 -47.7115 5.43695 -1.4056 68.1407 -3.67293 -0.147589 21.5066 -2.46763 3.70041 -0.000975538 8.27116 -89.2843 10.3272 0.325537 1.39201 -1.34441 0.386464 1.37633 -23.8735 -0.107828 1.42548 -3.86085 -0.107836 1.42548 84.4598 -51.0494 -108.675 21.9038 -23.5133 -10.828 -17.1215 -15.217 -19.3628 -8.89557 -0.0843805 -4.09785 -88.9941 -42.2658 78.782 -23.7527 8.53751 -8.75785 9.19919 -11.3623 -15.268 -1.58881 -0.0923755 -4.75503 -13.9639 2.51547 -8.36416 11.0854 2.78371 0.90744 
29.4398 100.202 -107.268 -150.754 -78.1162 -155.497 -176.75 -1.89758 79.7439 -29.288 15.393 5.27567 77.5772 7.09317 -1.82532 11.2092 -6.96708 -0.3317 173.857 14.0347 83.7934 -57.3925 4.3906 -3.06475 68.8115 -3.97292 -1.88875 23.8511 -2.62846 5.54614 0.378549 8.17082 -89.0603 10.5198 1.18556 1.7618 -1.15171 1.26195 1.70791 -23.6787 0.601384 2.03655 -3.66609 0.601383 2.03653 84.8745 -49.737 -108.477 23.9429 -25.029 -9.45083 -18.1001 -14.553 -22.267 -10.4245 -0.16255 -3.32182 -89.138 -44.755 79.125 -27.6602 7.04584 1.45902 8.94091 -14.2296 -11.2703 -4.44356 -0.0677181 -5.24032 -13.9926 1.34722 -7.54631 10.9255 1.36559 -1.02846 
29.8384 100.098 -110.036 -146.353 -78.3341 -151.943 -177.41 0.905987 78.3178 -29.7427 14.9895 5.29803 76.4647 6.85466 -0.344791 10.1541 -7.5813 -0.0328653 172.137 6.33071 81.1507 -60.9478 1.07235 -4.01962 66.9114 -3.54451 -0.640045 23.8122 -2.32217 4.61141 0.732863 7.92795 -88.7791 10.9928 2.02447 2.23614 -0.678309 2.1209 2.14489 -23.2039 1.25911 2.7409 -3.19123 1.2591 2.7409 84.876 -49.0734 -108.691 26.8461 -23.6739 -7.76012 -18.7993 -15.2002 -22.945 -10.4424 -0.192929 -2.96864 -88.5778 -45.8665 80.2494 -31.6652 7.5264 12.2213 7.44015 -21.5715 -7.96 -0.357798 -0.0501015 -1.61798 -14.1772 0.262267 -8.27674 10.7132 0.180701 -1.90537 
29.5614 99.6185 -113.441 -142.426 -78.6488 -148.736 -176.718 4.78272 78.7523 -31.3521 15.206 3.87256 75.5882 6.1273 -1.28792 10.8187 -7.51109 0.382587 170.593 -2.30048 80.0613 -57.5491 -6.63271 -4.77063 66.2031 -3.29533 -1.01914 25.0063 -2.57343 6.17507 1.02046 7.72038 -88.4779 11.3954 2.74074 2.75455 -0.275304 2.85928 2.63129 -22.7987 1.78673 3.45033 -2.78607 1.78673 3.45034 84.852 -49.0596 -108.732 28.6974 -23.5251 -7.68635 -18.4921 -15.0389 -22.3514 -10.5011 -0.117648 -3.86281 -87.9136 -45.9949 81.3177 -35.1712 6.57006 19.6683 6.88724 -23.9087 -7.46097 -1.71126 -0.0698022 -1.01889 -13.2212 -0.350223 -9.6859 9.73706 -0.344498 -2.22047 
29.5577 99.1449 -118.287 -136.656 -77.5776 -143.882 -176.922 8.48146 78.2079 -31.8298 12.8443 3.38797 73.7124 4.74118 -2.3404 9.97298 -8.19564 0.957183 170.423 -10.5762 79.358 -47.8795 -16.5235 -6.4373 66.2692 -3.22648 -1.14257 27.5502 -2.48438 7.59308 1.31781 7.72649 -88.2116 11.3635 3.45614 3.21586 -0.306483 3.59425 3.06067 -22.8291 2.33076 4.10499 -2.81646 2.33077 4.10499 84.437 -49.2477 -109.3 28.0059 -24.5348 -9.1942 -18.9923 -15.7288 -23.3846 -11.1377 -0.172202 -3.36049 -87.2642 -45.5314 82.2492 -37.6237 5.82323 21.1846 7.15546 -22.8727 -7.49091 -2.88144 -0.102918 -0.57383 -12.1948 -0.711783 -10.7756 10.6214 -0.535605 -1.68692 
29.5607 98.6943 -125.318 -128.431 -76.0651 -135.938 -177.512 12.1969 78.5665 -28.7816 10.6664 3.25082 69.388 2.99388 -2.36964 9.47972 -8.70104 1.47539 171.342 -12.9673 80.2484 -39.2755 -15.7989 -6.83681 73.1171 -5.75432 -1.60527 32.3728 -2.48121 11.8294 1.56433 7.86802 -88.2264 11.0761 3.93647 3.14987 -0.592311 4.07122 2.97353 -23.1244 2.80869 4.18654 -3.11179 2.8087 4.18655 85.6962 -47.6526 -107.896 26.1414 -24.4662 -12.2192 -22.6385 -20.2663 -27.8187 -9.99982 -0.32244 -1.30186 -87.7751 -47.2694 81.7786 -36.1518 5.36877 17.409 6.46153 -23.8595 -9.53174 -3.47889 -0.111367 -1.63844 -10.1041 -0.969414 -7.46777 10.7994 -0.981011 -3.4945 
